<?xml version="1.0" encoding="UTF-8"?>
<svg version="1.1" viewBox="0 0 2000 2000" width="500" height="500" xmlns="http://www.w3.org/2000/svg">
<path transform="translate(889,132)" d="m0 0 12 1 10 4 8 8 5 11 1 10v348l149 1v-181l3-14 6-8 9-6 5-2h17l10 4 7 6 6 12 1 3 1 185 149 1v-357l3-10 9-10 7-4 13-2 12 2 8 5 5 5 6 12 1 18v341h104l12 3 9 7 6 10 2 8v105h183l9 2 8 5 5 5 5 8 1 3v17l-5 10-4 5-7 5-12 3h-183l1 149h344l13 1 10 4 3 2v2l4 2 6 10 2 8v8l-3 10-6 8-7 6-8 3-14 1h-345v150h183l9 2 8 5 8 9 3 7v16l-3 8-9 10-10 5-5 1-183 1-1 149h355l9 2 8 6 6 7 4 8 1 5v8l-2 8-5 8-7 7-9 4-359 1-1 104-2 9-6 8-8 7-7 3-5 1-19 1h-86v185l-3 10-9 10-10 5-6 1h-9l-11-4-6-4v-2h-2l-5-9-2-8-1-135v-45l1-4h-150v350l-2 12-6 9-8 7-11 4h-11l-9-3-6-4-7-8-3-7-1-5v-355h-150v182l-2 9-5 8-7 7-9 4-5 1h-9l-10-3-8-6-4-5-3-6-2-10v-181h-150v356l-3 9-4 6-8 7-11 4h-11l-10-3-9-7-6-12-1-6-1-354h-95l-15-2-10-5-7-7-4-9-1-5-1-105h-179l-13-2-9-6-5-6-4-8-1-5v-10l3-9 4-6 8-7 11-4 31-1h154l1-149h-354l-13-4-10-9-5-10-1-3v-13l3-9 5-7 9-6 10-3 355-1 1-149h-176l-14-2-10-5-8-9-3-7-1-5v-9l3-9 4-6 8-7 7-3 5-1h184l1-151-348 1-14-2-8-4-7-7-5-10-1-3v-13l3-9 5-7 9-6 10-3 355-1 1-107 3-9 9-10 10-5 6-1 104-1v-175l2-16 5-9 8-7 7-3 12-1 10 2 8 4 7 8 4 8 1 4v186l149-1v-351l2-11 6-9 8-7 7-3zm-1 9-7 3-6 5-4 8-1 13-1 352-141 1h-24l-1-194-5-10-8-6-4-2h-13l-8 5-6 7-2 6-1 192-1 1-113 1-10 4-6 7-2 4-1 6v111h-357l-9 1-9 5-6 8-2 8 1 10 5 8 9 6 5 1 362 1 1 165h-63l-130 1-8 3-7 6-3 7-1 5v7l3 8 7 7 8 4 193 1v165l-364 1-10 5-5 6-3 9v8l5 10 8 6 3 1 19 1h348v166h-69l-125 1-10 5-6 8-2 8v7l3 8 8 8 8 3h193v113l3 9 6 7 9 4 114 1 1 364 3 8 8 7 7 3h10l9-4 7-7 2-6 1-365h165l1 7v183l2 9 6 7 10 5h11l10-5 5-6 3-9v-191l167-1v364l4 10 7 6 7 3h11l10-5 6-7 2-11 1-359h165l1 194 3 7 9 8 5 2h12l9-5 6-7 2-6 1-22v-169l1-2 113-1 10-5 6-7 2-6 1-114h364l10-5 6-7 2-5v-12l-3-8-5-5-6-4-4-1-364-1v-165l190-1 10-3 7-6 3-5 1-4v-10l-4-9-8-7-5-2-8-1h-186v-166h358l9-2 9-6 4-5 2-5v-11l-3-8-9-8-7-2-362-1-1-2v-163l192-1 10-4 7-8 2-6v-10l-4-9-8-7-5-2-194-1-1-116-4-8-8-7-6-2h-113l-1-362-4-10-7-7-8-3h-10l-10 5-6 8-2 10-1 358-141 1h-24l-1-194-4-9-8-7-5-2h-13l-8 5-6 7-2 6-1 9v184h-165l-1-307v-30l-1-28-3-6-7-7-7-3z" fill="#E2A53D"/>
<path transform="translate(230,1129)" d="m0 0h178v1h93l22-1v166l-11 1h-58l-125 1-10 5-5 7-2 8v7l3 8 7 7 8 3 193 1 1 113 3 9 5 6 9 4 114 1 1 1 1 364 3 8 7 6 7 3h10l9-4 6-6 2-6 1-365 1-1h165l2 3v188l2 9 5 6 10 5h11l10-5 4-5 3-9 1-191 2-1h165l1 8v356l4 10 6 5 7 3h11l10-5 5-6 2-11 1-359 1-1h165l1 1 1 194 3 7 8 7 5 2h12l9-5 5-6 2-6 1-22v-169l2-3 113-1 10-5 5-6 2-6 1-105 1-5h7v114l-4 8-9 9-9 4-5 1-19 1h-86v185l-3 10-9 10-10 5-6 1h-9l-11-4-6-4v-2h-2l-5-9-2-8-1-135v-45l1-4h-150v350l-2 12-6 9-8 7-11 4h-11l-9-3-6-4-7-8-3-7-1-5v-355h-150v182l-2 9-5 8-7 7-9 4-5 1h-9l-10-3-8-6-4-5-3-6-2-10v-181h-150v356l-3 9-4 6-8 7-11 4h-11l-10-3-9-7-6-12-1-6-1-354h-95l-15-2-10-5-7-7-4-9-1-5-1-105h-179l-13-2-9-6-5-6-4-8-1-5v-10l3-9 4-6 8-7 11-4 31-1h154l1-149h-25l-46-1-16-1-4-2v-1h-97v-2l-18-1-79-1z" fill="#E2A53D"/>
<path transform="translate(571,570)" d="m0 0h858l1 2v855l-7 2h-851l-2-3v-855zm8 9v842h838l4-1v-841z" fill="#E8B14F"/>
<path transform="translate(675,648)" d="m0 0h648l10 2 8 5 7 8 4 11v650l-2 9-6 9-7 6-8 3-136 1h-506l-18-2-8-4-6-5-6-12-1-6v-649l3-10 9-10 10-5zm8 7-12 2-9 6-4 6-2 10v645l3 9 5 6 7 4 5 1h650l10-5 6-8 2-8v-647l-3-9-4-5-8-5-3-1-22-1z" fill="#E2A63D"/>
<path transform="translate(704,703)" d="m0 0h592l1 2v590l-7 2h-585l-2-2v-591zm8 8-1 1v576h577l1-576-1-1z" fill="#E3A63E"/>
<path transform="translate(1476,847)" d="m0 0h1l1 17 1 3 2 1h42l6-1-11-1v-1l35-1h-20l-14-1h-13l-4 1-4-1 2-2 79-1h251l13 1 10 4 3 2v2l4 2 6 10 2 8v8l-3 10-6 8-7 6-8 3-14 1h-345v150h183l9 2 8 5 8 9 3 7v16l-3 8-9 10-10 5-5 1-183 1-1 149h355l9 2 8 6 6 7 4 8 1 5v8l-2 8-5 8-7 7-9 4-359 1-1 104h-1l-1-106 1-2-6 1-2 4v-7l1-2 364-1 10-5 5-6 2-5v-12l-3-8-5-5-5-3-4-1-362-1-2-1-1-3v-162l1-1 190-1 10-3 6-5 3-5 1-4v-10l-4-9-7-6-5-2-8-1h-163l-23-1-1-12v-152l1-2 43-1h315l9-2 9-6 4-6 1-3v-11l-3-8-8-7-7-2-362-1-2-3z" fill="#EBB147"/>
<path transform="translate(901,858)" d="m0 0h12l10 4 8 6 7 7 7 11 9 19 13 36 14 43 19 58 8 24v2l6 2 8 7 5 8 2 6v12l-4 10-2 4 2 11 8 30 3 9 7-9 5-4 11-4h45v-35l3-75 3-94 1-22h-51l-9-2-6-4-5-6-3-6-1-5v-9l4-13 8-9 10-5 16-3 75-2h15l25 1 16 2 10 4 8 7 4 6 3 10-1 13-5 10-7 7-6 3-8 1h-14l-16-1v26l-6 174-1 27 35 1 9 2 10 6 6 9 3 10-1 12-5 10-4 5-8 5-3 1h-126l-22-1-12-6-6-5-5-8-4 5-5 5-7 6-14 3-11-1-10-5-7-8-4-9-9-33-6-24-1-3h-109l-2 6-16 52-6 12-9 9-8 4-3 1h-14l-10-4-7-6-4-8-1-3v-13l9-29 15-47 10-31 16-49 10-32 12-36 11-31 10-23 9-17 8-10 5-6 10-6zm-2 9-8 5-8 9-10 17-9 20-10 28-14 43-10 31-13 41-12 36-17 54-8 24-1 5v10l4 7 8 5 10 2 10-3 8-6 5-8 6-18 12-40 3-8 2-1h120l3 7 15 59 4 8 7 6 8 3h9l9-4 7-8 2-10-5-21-11-41 1-5 4-5 2-6v-9l-3-8-7-7-9-4-12-36-12-37-24-72-10-25-8-16-8-12-8-7-6-3zm230 2-48 1-18 2-12 6-4 6-2 10 1 11 7 8 8 3h58v24l-2 70-2 44-3 90-1 12-3 1-45 1-10 2-5 5-4 10v9l4 8 8 7 5 2 6 1 98 2h39l7-3 5-4 4-9v-13l-4-8-7-5-8-2-39-1-3-1v-24l5-150 2-69h12l25 1 8-3 5-4 4-6 1-5v-10l-3-8-8-7-13-3-12-1z" fill="#E4A840"/>
<path transform="translate(1318,132)" d="m0 0 11 1 10 5 5 5 6 10 1 3 1 18v341h104l12 3 9 7 6 10 2 8v105h183l9 2 8 5 5 5 5 8 1 3v17l-5 10-4 5-7 5-12 3h-183l1 149 14 1-1 2h6l1-1h13l18 1h59v1l-43 1-22 1-4 2-4 1h-42l-3-2-1-3-1-17v-143l1-1 192-1 10-4 6-7 2-6v-10l-4-9-7-6-5-2-190-1-4-1-1-5-1-111-4-8-7-6-6-2-113-1-1-2-1-360-4-10-8-7-6-2h-10l-10 5-5 7-2 10-1 358-1 1-141 1-24-1-1-5-1-189-4-9-7-6-5-2h-13l-8 5-5 6-2 6-1 9v168l-2 4-1-4-1 3-5 1v-28l1-21v-58l-1-21v-55l3-8 4-6 8-6 7-3h17l10 4 7 6 6 12 1 3 1 185 149 1v-357l3-10 9-10 7-4z" fill="#E3A73F"/>
<path transform="translate(1477,1348)" d="m0 0h7v114l-4 8-9 9-9 4-5 1-19 1h-86v185l-3 10-9 10-10 5-6 1h-9l-11-4-6-4v-2h-2l-5-9-2-8-1-135v-45l1-4h-150v350l-2 12-6 9-8 7-11 4h-11l-9-3-6-4-7-8-3-7-1-5v-355h-150v182l-5 11-1 1h-5l1-11 1-191 2-1h165l1 8v356l4 10 6 5 7 3h11l10-5 5-6 2-11 1-359 1-1h165l1 1 1 194 3 7 8 7 5 2h12l9-5 5-6 2-6 1-22v-169l2-3 113-1 10-5 5-6 2-6 1-105z" fill="#E4A840"/>
<path transform="translate(515,734)" d="m0 0h1l1 45v44l-1 40h4v-15l1-5h1l1 25-11 1h-52l-130 1-8 3-6 5-3 7-1 5v7l3 8 9 8 5 2 193 1 1 1v165l-1 1-364 1-10 5-4 5-3 9v8l5 10 7 5 3 1 19 1h287l55 1v1l-16 1h-118v-1h-74l14 1 4 1v2l56-1h69v1l-27 1 8 1 11 1 46 1v1h-329l-13-4-10-9-5-10-1-3v-13l3-9 5-7 9-6 10-3 355-1 1-149h-176l-14-2-10-5-8-9-3-7-1-5v-9l3-9 4-6 8-7 7-3 5-1h184z" fill="#F1BA4F"/>
<path transform="translate(889,132)" d="m0 0 12 1 10 4 8 8 5 11 1 10v348l149 1v-181h1l1 52 1 27v51l-1 18v27h4l1-13h1l1 14 1 9-1 3-3 1h-162l-1-1-1-307v-30l-1-28-3-6-8-7-5-2h-11l-7 3-5 4-4 8-1 13-1 352-2 1-13-1v-1l8-1-1-1v1h-11l-2-1h-80l-20-1 1-3 110-1v-351l2-11 6-9 8-7 7-3z" fill="#F2BC51"/>
<path transform="translate(1429,572)" d="m0 0h1v855l-4 1 2-9-1-8-2 4h-2l-2 11h-26v-1h-783l-3-1-14-1v-2l8-1h818v-841h1l1 99 1 5-2 3 3 1v13l2 36v23l-1 111 1 104v35l-1 77v252l-1 38-1 8h-1l-1 28 3-3h3v-835z" fill="#F4BE52"/>
<path transform="translate(230,1129)" d="m0 0h178v1h93l22-1v166l-11 1h-58l-125 1-10 5-5 7-2 8v7l3 8 7 7 8 3 193 1 1 113 3 9 5 6 9 4 112 1v2h-3l1 8-10-1h-89l-15-2-10-5-7-7-4-9-1-5-1-105h-179l-13-2-9-6-5-6-4-8-1-5v-10l3-9 4-6 8-7 11-4 31-1h154l1-149h-25l-46-1-16-1-4-2v-1h-97v-2l-18-1-79-1z" fill="#E3A73F"/>
<path transform="translate(1476,847)" d="m0 0h1l1 17 1 3 2 1h42l6-1-11-1v-1l35-1h-20l-14-1h-13l-4 1-4-1 2-2 79-1h251l13 1 10 4 3 2v2l4 2 6 10 2 8v8l-3 10-6 8-7 6-8 3-14 1h-345v150h21v1h-22l-1-107-1-1v88h-3l-2-3-1-134 1-2 43-1h315l9-2 9-6 4-6 1-3v-11l-3-8-8-7-7-2-362-1-2-3z" fill="#F2BD52"/>
<path transform="translate(679,648)" d="m0 0h644l10 2 8 5 7 8 4 11v636l-1 13-2 2-3 1-2-6-1-644-3-9-5-5-6-4-3-1-22-1h-604v-1l60-1 496-1v-1l32-1h30l-7-1h-161l-471-1z" fill="#E2A53D"/>
<path transform="translate(676,303)" d="m0 0 12 1 9 4 7 6 6 11 1 4v186h39l76 1v1l-52 1h75l2 1h9l3-1v2l5 2v1l-140 1-24-1-1-14-1-180-5-10-9-6-2-1h-13l-8 5-5 6-2 6-1 192-2 2-113 1-10 4-6 8-2 8-1 72-1 7v28l-3 2h-7l-1-2-7-1v-1h11v-109l3-9 9-10 10-5 6-1 104-1v-175l2-16 5-9 8-7 7-3z" fill="#E4A840"/>
<path transform="translate(1364,570)" d="m0 0h65v805l-1 34h-3l-1 3h-2v-33l2-3 1-49v-258l1-67v-37l-1-107 1-112v-11l-2-38v-10l-2-1 1-7-1-1v-99h-66l-213-1h-17l-108-2v-1l15-1h133l-346-1v-2z" fill="#E2A53D"/>
<path transform="translate(1351,1310)" d="m0 0h1v14l-2 9-6 9-7 6-8 3-136 1h-506l-18-2-8-4-6-5-4-7 1-4 6-1 4 7 9 6 5 1h650l10-5 5-7 3-11h1l1 5 4-2z" fill="#ECB349"/>
<path transform="translate(704,703)" d="m0 0h592v2h-67v1h-5l-1 2 17 1 48 1v1h-575v-1l17-1v-1l-17-2v-1h-8l-1 4h-1v-5z" fill="#F2BB4F"/>
<path transform="translate(1687,659)" d="m0 0 4 2 5 10v17l-5 10-4 5-7 5-12 3h-183l1 149 14 1-1 2h6l1-1h13l18 1h59v1l-43 1-22 1-4 2-4 1h-42l-3-2-1-3-1-17v-143l1-1 192-1 10-4 6-7 2-6v-13l4-3-4-6z" fill="#E3A73E"/>
<path transform="translate(653,1476)" d="m0 0 3 1 1 364 3 8 7 6 7 3h10l9-4 6-6 2-6 2 3 4-4 2-15 2 4v11l-3 9-4 6-8 7-11 4h-11l-10-3-9-7-6-12-1-6v-354l3 1-1-8h3z" fill="#F3BC51"/>
<path transform="translate(1421,579)" d="m0 0h1l1 99 1 5-2 3 3 1v13l2 36v23l-1 111 1 104v35l-1 77v252l-1 38-1 8h-1v-5h-2z" fill="#F3BD51"/>
<path transform="translate(522,616)" d="m0 0h1v39l-6 1h-351l-9 1-9 5-5 7-2 8 1 10 5 8 3 3h-6l2 2 4 2h-3l2 2 2 3 5 1v2l-6-1-8-6-6-7-4-10v-13l3-9 5-7 9-6 10-3 357-1-1 3h-4l1 3 9-2v-32z" fill="#EEB64B"/>
<path transform="translate(675,648)" d="m0 0 475 1h166l5 1-3 2h-30l-2 2-526 1-77 1-12 2-5 2-1-2h-8l4-5 9-4z" fill="#F3BD51"/>
<path transform="translate(676,303)" d="m0 0 12 1 9 4 7 6 6 11 1 4v186h39l76 1v1l-52 1h75l2 1h9l3-1v2l5 2v1l-140 1-24-1-1-14-1-180-5-10-9-6-2-1h-13l-7 3v-2l-7 1-5 2 2-4 8-6 5-2z" fill="#E5AC48"/>
<path transform="translate(861,155)" d="m0 0h1l1 43 2 3 1 72 1 38 1-25 1-35h1v271l-2 1-13-1v-1l8-1-1-1v1h-11l-2-1h-80l-20-1 1-3 110-1v-351z" fill="#F3BD51"/>
<path transform="translate(1131,1476)" d="m0 0h165l1 1 1 198-2 1-4-4v-6l-3-1-1-131v-45l1-5h-149l-4-1v-2h-2z" fill="#E2A53D"/>
<path transform="translate(1130,1493)" d="m0 0 3 1 1 4h2l1 3 1 14v312l-2 14-5 1h-1z" fill="#E2A53D"/>
<path transform="translate(905,945)" d="m0 0 3 1 6 16 14 40 20 60 1 9-12 1h-71l-4-1v-6l32-96 7-19zm0 20-6 16-25 75-2 5v3h67l-1-7-15-45-11-31-5-15z" fill="#E4A840"/>
<path transform="translate(515,734)" d="m0 0h1l1 45v44l-1 40h4v-15l1-5h1l1 25-11 1h-52l-130 1-8 3-6 5-3 7-1 5v7l3 8 9 8 5 2 193 1v11h-1l-1-6-3-1v-2l-26 1h-153l-8-1-4-1-9-5-4-3v4l3-1 1 3 5 2v3l7 1 5 2v1l-9-1-10-5-8-9-3-7-1-5v-9l3-9 4-6 8-7 7-3 5-1h184z" fill="#F2BD54"/>
<path transform="translate(313,908)" d="m0 0 7 5 6 3 4 1 8 1h161l20-1-2 1 2 2 2 1 2-4v118l-2 13-1 26-3 2v5l-3 1h-57v-1l-14-1v-1l13-1-53-1v-1h111l1-151h-176l-9-2-3-2-5-1v-3l-5-1-2-3h-2l-1-4z" fill="#E3A73F"/>
<path transform="translate(806,572)" d="m0 0 367 1v1l-7 1h-140l107 2h39l184 1v1h-769v-1l154-1 2-1 11-1-63-1v-1z" fill="#F3BD51"/>
<path transform="translate(1427,1410)" d="m0 0 2 4-1 8-2 6-809-1 2-1v-2h782v1h19l3-10h2l1-4z" fill="#E2A53D"/>
<path transform="translate(230,1129)" d="m0 0h178v1h93l22-1v163l-7-2-1-3v-148h-25l-46-1-16-1-4-2v-1h-97v-2l-18-1-79-1z" fill="#E3A63E"/>
<path transform="translate(820,1028)" d="m0 0 1 4v8l3-1-2 9-18 55-15 48-8 24-1 5v10l3 5v2l4 2 11 4 11-2 9-6 5-8 6-18 11-37 3 4-1 5 2 3-3 12-10 32-6 10-8 8-8 4-3 1h-14l-10-4-7-6-4-8-1-3v-13l9-29 15-47 10-31 13-40 2-1z" fill="#E6AB43"/>
<path transform="translate(1864,1307)" d="m0 0 3 4 1 5v8l-2 8-5 8-7 7-9 4-359 1-1 104h-1l-1-106 1-2-6 1-2 4v-7l1-2 93 1h275l3 1v-2l3-1v2l6-4 5-8 2-9 1-12z" fill="#F1B94E"/>
<path transform="translate(1476,930)" d="m0 0h1l1 123 1 3 2-2v-37l1-49 2 1v107l22-1h162l9 2 4 2 3 5 6 7 2 8-4 1-2-1-4-7-8-6-11-2h-163l-23-1-1-12z" fill="#E4A840"/>
<path transform="translate(141,1114)" d="m0 0 3 4 4 5 8 4 19 1h287l55 1v1l-16 1h-118v-1h-74l14 1 4 1v2l56-1h69v1l-27 1 8 1 11 1 46 1v1h-104l-183-1v-1l5-1 1-3 1-1-47-1-11-1-5-5-3-1-3-5z" fill="#F3BD51"/>
<path transform="translate(847,1119)" d="m0 0h120l3 5 14 54 4 13 6 7 10 4h9l9-4 6-7 2-7 1 4 3 1 1 4-5 7-9 7-14 3-11-1-10-5-7-8-4-9-9-33-6-24-1-3h-109l-2 6-3 10-2 1-2-4 1-4-1-7 4-9z" fill="#E4A944"/>
<path transform="translate(867,1478)" d="m0 0 3 1v188l2 9 5 6 10 5h11l10-5 4-5 2-2v4l6-2 3-7 1 3-5 10-8 8-9 4-5 1h-9l-10-3-8-6-4-5-3-6-2-10v-176l2-1v4l3-1 1-1v-8l-3-1 1-3z" fill="#F3BE52"/>
<path transform="translate(889,132)" d="m0 0 12 1 10 4 8 8 5 11v312h-1l-1-26v-116l-1-120-1-30-2-4-1-12-1-5-5-5-7-6-5-2h-11l-7 3-5 4-4 8-1 13-1 81-2 72h-1l-1-12-1-43-1-67-2-1v-48l6-9 8-7 7-3z" fill="#E2A53D"/>
<path transform="translate(156,701)" d="m0 0 366 1 1 4-5-1v-2l-86 1h-20l72 1v1l-39 1-8 1 18 1v1h-256v-1l13-1-14-1-33-1v-1l14-1-20-1z" fill="#F3BD52"/>
<path transform="translate(515,1287)" d="m0 0 4 3 4 2v3l-11 1h-58l-125 1-10 5-5 7-2 8v7l3 8 7 7 4 2-1 2-6-2-7-7 1 5 5 5 6 3 13 2 1 2h-13l-10-5-7-8-4-8-1-5v-10l3-9 4-6 8-7 11-4 31-1h154z" fill="#F3BD52"/>
<path transform="translate(1085,310)" d="m0 0 13 1v2l-6 4-5 6-2 6-1 9v168l-2 4-1-4-1 3-5 1v-28l1-21v-58l-1-21v-55l3-8 4-6z" fill="#E2A63E"/>
<path transform="translate(1476,1285)" d="m0 0h1v6l4 1v4l63-1-8-1v-1l16-1-32-1v-1l30-1h79l60 1v2l34 1h49l66-1v2l-36 1h-20l56 1v1h-359l-2-1-1-3z" fill="#F3BD51"/>
<path transform="translate(916,1477)" d="m0 0 2 1v2l4 2v2h2v186l-4 8-1 1h-5l1-11z" fill="#E2A53D"/>
<path transform="translate(1130,1477)" d="m0 0 4 2v2h2v2l153 1v1h-150v350l-2 12-6 9-8 7-11 4h-11l-9-3-6-4-7-8-3-7-1-5v-16h1l2 12 5 1 4 11 5 6 9 4h11l10-5 5-6 2-11h1l1 5h4l2-14v-315l-1-14h-2l-2-4-2-1z" fill="#F4BE52"/>
<path transform="translate(703,1476)" d="m0 0 6 1-4 4v17l1 4v290l-1 6-1 36-1 7h-1v-364z" fill="#F5C86E"/>
<path transform="translate(1836,1288)" d="m0 0 10 1 8 4 7 7 3 5 2 9-2 15-3 8-6 7-4 1-3-1v2h-278l-90-1v-1l361-1 10-5 5-6 2-5v-12l-3-8-5-5-5-3-7-2-61-1v-1l5-1h26l30-1 3-1-5-1h-6l4-2z" fill="#E3A73F"/>
<path transform="translate(648,1487)" d="m0 0 2 3h3l2-2v173h-1l-1-9v-24l-1-77-1-17 1-18v-5l-2-6v95l1 97 1 7-1 4v4 92l1 13v3h-2l-1 17h-1z" fill="#E2A53D"/>
<path transform="translate(531,525)" d="m0 0h3v2l-5 4-4 7-1 6-1 72-1 7v28l-3 2h-7l-1-2-7-1v-1h11v-109l3-8 11-6z" fill="#E3A73E"/>
<path transform="translate(578,579)" d="m0 0h1v842l-2-3-1-26 1-7v-43l-1-39 1-5v-678l-1-32z" fill="#F4BE52"/>
<path transform="translate(729,515)" d="m0 0h21l76 1v1l-52 1h75l2 1h9l3-1v2l5 2v1l-140 1-24-1v-6l3-1z" fill="#E2A63D"/>
<path transform="translate(1629,1288)" d="m0 0h207l-2 2 7 1 1 2-70 1h-49l-34-1-3-2-57-1z" fill="#E3A63E"/>
<path transform="translate(1477,1348)" d="m0 0h7v109l-1 2h-4l-3-2v-104z" fill="#E2A53D"/>
<path transform="translate(146,1083)" d="m0 0 8 1-3 3-6 5-3 6-1 5 1 16 2 5 4 1 4 4 11 1 47 1 3 2-4 1-1 2h15v1l163 1v1h-207l-4-4v-1h-13l-5 1-8-1-7-7v-2h-2l-1-5h-3l-2-16 2-10 2-5h2v-2z" fill="#E2A53D"/>
<path transform="translate(1687,659)" d="m0 0 4 2 5 10v17l-5 10-4 5-7 5-12 3h-89l2-2h25v-1h17l7 1 1-2h-25l-9 1-5-2v-1l80-1-3-2 10-4 6-7 2-6v-13l4-3-4-6z" fill="#F3BE54"/>
<path transform="translate(906,137)" d="m0 0h5l8 8 5 11v312h-1l-1-26v-116l-1-120-1-30-2-4-1-12-1-5-5-5-7-6-5-2v-2l-3-1z" fill="#E3A63E"/>
<path transform="translate(866,1513)" d="m0 0 2 4 1 147 1 3v8l-2 1-1-7h-2l-2-6-1-2v-100h1l1 15 1-51z" fill="#E2A53D"/>
<path transform="translate(1681,1080)" d="m0 0 4 2 8 9 3 7v16l-3 8-9 10-10 5-5 1h-40l1-2 14-1v-2l18-1h-127v-2l132-1 10-3 6-5 3-5 1-4v-13h5l-4-9-7-8z" fill="#F3BE54"/>
<path transform="translate(146,697)" d="m0 0 9 3 4 2 20 1 41 1v1l-19 1 30 2v1l223 1v1l-285 1-12-1-1-3h-5l-4-4 1-3-4-1v-2z" fill="#E2A53D"/>
<path transform="translate(1074,334)" d="m0 0h1l1 52 1 27v51l-1 18v27h4l1-13h1l1 14 1 9-1 3-3 1h-8l-3-2-17 1h-7v-2l-4-1 2-1-48-1v-1l79-1z" fill="#EEB54B"/>
<path transform="translate(159,1075)" d="m0 0h50l12 1v1h-46v2l7-1 31 1 17 1v1l-23 1-17-1-4-1v2l-28 2-4 1-8-1-4 3h-2v2h-2l-3 13 1 18h3l1 5h2l1 4 4 2 3 2 11 1 5-1h14l-4 2 3 4h-18l-13-4-10-9-5-10-1-3v-13l3-9 5-7 9-6z" fill="#EDB54C"/>
<path transform="translate(968,515)" d="m0 0h95l-2 3-9 1h-9l2 1v2l14-1 11-1v2l2 1h-147l3-2h48l4-1-16-2z" fill="#F4BE52"/>
<path transform="translate(1296,705)" d="m0 0h1v590l-1 1h-6l4-3h2z" fill="#F4BE52"/>
<path transform="translate(1351,1661)" d="m0 0h1v9l-3 10-9 10-10 5-6 1h-9l-11-4-6-4v-2h-2l-5-9-2-8 1-4 2 1 2 9h5l7 8 8 4h12l9-5 5-6 2-6 1 2 4 1 3-4z" fill="#E4A73F"/>
<path transform="translate(840,1132)" d="m0 0 3 4-1 5 2 3-3 12-10 32-6 10-8 8-8 4-5-1-1-2-4-1 2-3 10-3 7-5 5-8 6-18z" fill="#F3BE55"/>
<path transform="translate(323,913)" d="m0 0 6 2 193 1v11h-1l-1-6-3-1v-2l-26 1h-153l-8-1-4-1-3-2z" fill="#EEB64B"/>
<path transform="translate(787,1151)" d="m0 0 1 2-7 22-1 5v10l3 5v2l4 2 11 4 4 2-1 1 3 1v2h2v2h-14l-10-4-7-6-4-8-1-3v-13l2-7h3l2 1 2-1 3-11 3-7z" fill="#F3BD54"/>
<path transform="translate(1130,331)" d="m0 0h1l1 18v41l1 5 1 33v13l-1 25-1 2 2 1v24l-1 13-1 1-1 11h-1z" fill="#F4BE52"/>
<path transform="translate(1130,1612)" d="m0 0h1v55h2v110l-1 3-1 44h-1z" fill="#F4BE52"/>
<path transform="translate(1477,1445)" d="m0 0h1l1 13 2-1v2h2l1-2-1 8-6 8-8 7-7 3-5 1h-14l1-3 3-1-27-1v-1l27-2 11-1 10-5 5-6 3-7z" fill="#F2BC52"/>
<path transform="translate(676,303)" d="m0 0 12 1 9 4 7 6 4 8-6 2-1 2-5-8-10-6h-13l-7 3v-2l-7 1-5 2 2-4 8-6 5-2z" fill="#F3BF55"/>
<path transform="translate(1075,1824)" d="m0 0h1l2 12 5 1 4 11 5 6 9 4h11l7-1-4 5h-8l1 4h-12l-9-5-7-7-4-9-1-5z" fill="#F3BE54"/>
<path transform="translate(923,1670)" d="m0 0 1 3-5 10-8 8-9 4-5 1h-9l-4-1v-3h-4l-1-2-5-3v-2h-2v-3h3l3 3 6 1 3 1h11l10-5 4-5 2-2v4l6-2z" fill="#F3BD53"/>
<path transform="translate(889,984)" d="m0 0 3 1 2 6h2l-3 11-11 34h-1l-1-10-5 2 3-11z" fill="#F1BB4F"/>
<path transform="translate(1592,705)" d="m0 0h68v3h7l1 3h-89l2-2h25v-1h17l7 1 1-2h-25l-9 1-5-2z" fill="#F3BD51"/>
<path transform="translate(703,726)" d="m0 0h1l1 26 1 14-1 6v95l-1 99h-1z" fill="#F4BE52"/>
<path transform="translate(1666,703)" d="m0 0h6l1 2-78 1 6 1 7-1h21l2 1-1 3-14-1h-9v1h-27l-1 1-15-1v-2l-2-1 3-3z" fill="#E2A53D"/>
<path transform="translate(940,515)" d="m0 0h28l-1 2 13 2 1 2-5 1h-52l-3-3 1-3z" fill="#E2A53D"/>
<path transform="translate(791,1129)" d="m0 0 2 4-1 8-3 10-4 1-3 12-3 7-3 1-1-1-2 2 1-10 10-30 4-2h3z" fill="#E4A841"/>
<path transform="translate(137,663)" d="m0 0v3 5l2 1 3-6 2 1-3 10 1 10 5 8 3 3h-6l2 2 4 2h-3l2 2 2 3 5 1v2l-6-1-8-6-6-7-4-10v-13l3-9z" fill="#F3BE54"/>
<path transform="translate(1074,334)" d="m0 0h1l1 52 1 27v51l-2 46h-1z" fill="#F4BE52"/>
<path transform="translate(537,516)" d="m0 0 52 1v1h-45l-1 3 111 1 2-4v4l-1 1-113 1-8 2-5 1-9 5-2-1 9-10z" fill="#F4BF55"/>
<path transform="translate(1130,1477)" d="m0 0 4 2v2h2v2l153 1v1h-150v18h-2l-1-5h-2l-2-4-2-1z" fill="#F2BC50"/>
<path transform="translate(1520,705)" d="m0 0h41l1 3h2v2h10v1h-88v-1l28-1 7-1z" fill="#F4BE52"/>
<path transform="translate(1138,1827)" d="m0 0h1l-1 16-3 8-9 10-10 5-4 1h-11v-1l6-1v-3h8l2-6 6-4 4-5 2-11h1l1 5h4l2-13z" fill="#F4C057"/>
<path transform="translate(835,1477)" d="m0 0h10l14 1-4 4-11 1 16 1v1h-149v-1l23-1h82l-17-1v-1l41-1-5-1z" fill="#F3BD51"/>
<path transform="translate(408,1128)" d="m0 0h54l55 1v1l-16 1h-118v-1h25z" fill="#F4C25D"/>
<path transform="translate(1351,1661)" d="m0 0h1v9l-3 10-9 10-10 5-6 1h-9v-1l8-1 2-4 3-1v-3l8-5 4-5 2-6 1 2 4 1 3-4z" fill="#F4BE54"/>
<path transform="translate(304,1310)" d="m0 0h1l2 11 1 1v7h2l-2-9 2-6 2-1v11l3 8 7 7 4 2-1 2-6-2-7-7 1 5 5 5 6 3 13 2 1 2h-13l-10-5-7-8-4-8-1-5v-10z" fill="#F4BF56"/>
<path transform="translate(511,1292)" d="m0 0 2 3-4 1h-171v-1l26-1h147z" fill="#E2A53D"/>
<path transform="translate(1478,722)" d="m0 0 3 1 1 16v46l-1 10-2 1-1-5v-22l-1-7v-38z" fill="#F4BE52"/>
<path transform="translate(145,1080)" d="m0 0m-1 1m-1 1m-1 1m-2 1 2 1-2 1zm-1 2 1 3h-2l-3 13 1 18h3l1 5h2l1 4 4 2 3 2 11 1 5-1h14l-4 2 3 4h-18l-13-4-10-9-5-10-1-3v-13l3-9z" fill="#F4BE53"/>
<path transform="translate(652,803)" d="m0 0h1l1 14 1 13 1 4v9l-2 21v11l-1 17h-1l-1-15v-73z" fill="#F3BD51"/>
<path transform="translate(1479,644)" d="m0 0 2 1v6h2v5h185v1h-187l-4-1-1-10h2z" fill="#F4BE52"/>
<path transform="translate(889,132)" d="m0 0 12 1 8 3-3 2-8 1 1 2h-9l2-2h-8l-9 5h-2v2l-7 3-1-2 7-8 8-5z" fill="#F2BB4F"/>
<path transform="translate(780,1195)" d="m0 0h3v2l4 2 11 4 4 2-1 1 3 1v2h2v2h-14l-10-4-7-6 2-5z" fill="#E4A943"/>
<path transform="translate(1477,703)" d="m0 0h189v1l-182 1-3 3-4-1z" fill="#F4BE52"/>
<path transform="translate(867,346)" d="m0 0h1l1 95-1 26-2-3v-101z" fill="#E2A53D"/>
<path transform="translate(1296,1477)" d="m0 0h1v193h-1v-188l-3-1z" fill="#F4BE52"/>
<path transform="translate(1030,1184)" d="m0 0 1 4 3 1 1 4-5 7-9 7-7 2h-6l-1-4 1-2 13-4 7-8z" fill="#F4BF57"/>
<path transform="translate(1223,1186)" d="m0 0 5 1-1 6-5 8-5 5-6 4-3 1h-10v-1l12-2v-3l-6-1 4-2 7-5 4-9 3 1z" fill="#F4C058"/>
<path transform="translate(861,1661)" d="m0 0h2v2l2 1v5h2l2 6 2-2 4 7 5 5-2 1-3-2v-2h-3v3h2l2 3 4 2v2h4l-1 3-10-5-7-8-3-6-2-10z" fill="#F4C058"/>
<path transform="translate(684,305)" d="m0 0h7l8 4 7 8 2 5-6 2-1 2-5-8-9-6 2-5h-5z" fill="#F4BE52"/>
<path transform="translate(1084,1850)" d="m0 0 4 3v2l5 2 8 1h11l7-1-4 5h-8l1 4h-12l-8-7-1-4h-3z" fill="#E3A740"/>
<path transform="translate(909,1681)" d="m0 0 2 1-4 6-2-1-1 2-7 2-3 4-10-1v-2h-4l-1-2-5-3v-2h-2v-3h3l3 3 6 1 3 1h11l10-5z" fill="#E5A940"/>
<path transform="translate(522,1035)" d="m0 0h1v47l-1 1h-8l2-3 1-5 3-1-1-6 1-23z" fill="#F4BE53"/>
<path transform="translate(1291,777)" d="m0 0 2 3v40l1 2-1 38-2-2v-7l-1-2 1-10v-9l-1-7v-8l1-5v-8l-1-13 1-5 1-2h-2z" fill="#F4BE52"/>
<path transform="translate(1097,304)" d="m0 0h17l-1 2 2 6h-17l-11-2 3-3z" fill="#F3BD51"/>
<path transform="translate(881,1008)" d="m0 0h3l2 1v4 2h2l-3 12-3 9h-1l-1-10-5 2 3-11z" fill="#E4A943"/>
<path transform="translate(1478,1247)" d="m0 0h2l2 9 1 8 2 1v23h6l-4 2-3-1-1-13-2 3-2-3-1-6z" fill="#F3BD51"/>
<path transform="translate(317,1300)" d="m0 0 1 3-4 6-3 5-2 7 1 8h-2l-1-7-2-6v-8l2-4 6-3z" fill="#E3A73E"/>
<path transform="translate(1344,519)" d="m0 0 11 2 105 1 2 2-117-1z" fill="#F4BE53"/>
<path transform="translate(1817,862)" d="m0 0h13l10 1-3 2h-57l-3-2z" fill="#E2A53D"/>
<path transform="translate(145,1080)" d="m0 0m-1 1m-1 1m-1 1m-2 1 2 1-2 1zm-1 2 1 3h-2l-3 13 1 18h3l1 5h2l1 4 4 2 3 2-2 2-10-9-5-10-1-3v-13l3-9z" fill="#F4C05A"/>
<path transform="translate(577,1335)" d="m0 0h2v86l-2-3-1-26 1-7z" fill="#F4BE52"/>
<path transform="translate(1289,1665)" d="m0 0 3 1 2 9h5l3 5h-4v-2h-2l7 10 4 2v2h3v2l-6-2-6-4v-2h-2l-5-9-2-8z" fill="#F4BE53"/>
<path transform="translate(710,329)" d="m0 0h1v45h-1l-2-13v-28z" fill="#F4BE53"/>
<path transform="translate(174,1078)" d="m0 0 39 1 17 1v1l-23 1-17-1-4-1v2h-14v-3z" fill="#E2A53D"/>
<path transform="translate(1612,1134)" d="m0 0h32l8 1v1l-27 1-33-1v-1z" fill="#E2A53D"/>
<path transform="translate(1291,1552)" d="m0 0h2v37l-2 2-1-14v-24z" fill="#F4BE52"/>
<path transform="translate(1043,518)" d="m0 0h30l1 3-4 1-1-1-17 1h-7v-2l-4-1z" fill="#E2A53D"/>
<path transform="translate(1476,1285)" d="m0 0h1v6l4 1v4h63v1h-65l-2-1-1-3z" fill="#F4BE52"/>
<path transform="translate(522,711)" d="m0 0h1v41l-2-2-1-31 1-7z" fill="#F4BE52"/>
<path transform="translate(1288,1497)" d="m0 0h1l1 9 2 1 1 12v7h-2l-1-2-1 10h-1z" fill="#F4BE52"/>
<path transform="translate(1606,708)" d="m0 0h17l7 2v1h-51l2-2h25z" fill="#F4BE52"/>
<path transform="translate(820,1028)" d="m0 0 1 4v8l-3 2-1 4-1 2-4 1 1-7 4-12 2-1z" fill="#F4C059"/>
<path transform="translate(1864,1307)" d="m0 0 3 4 1 5v8l-2 8-4 7-2-2 3-8 2-17z" fill="#F4C462"/>
<path transform="translate(578,1298)" d="m0 0h1v37h-2l-1-31z" fill="#F0B94E"/>
<path transform="translate(653,1476)" d="m0 0 3 1v12l-4 2h-3l-1-6 3 1-1-8h3z" fill="#EFB84D"/>
<path transform="translate(654,1663)" d="m0 0h2v37l-2-2-1-5z" fill="#E2A53D"/>
<path transform="translate(1476,847)" d="m0 0h1l1 17 1 3 2 1h25l15 1v1h-43l-2-3z" fill="#F4BE52"/>
<path transform="translate(889,984)" d="m0 0 3 1 2 6h2l-2 8-2-1v-3l-2 1-2 2-2-5z" fill="#F3BE54"/>
<path transform="translate(143,659)" d="m0 0 4 1-1 4-1 2h-3l-2 6-2 2v-2l-2-1v-5l3-4z" fill="#E2A63D"/>
<path transform="translate(1859,877)" d="m0 0 4 4 1 2v18l-3 1-1-2v-11l2-5-4-6z" fill="#E2A53D"/>
<path transform="translate(881,1008)" d="m0 0h3l2 1v4 2h2l-2 8-4-4h-4z" fill="#F4BE52"/>
<path transform="translate(662,1857)" d="m0 0 12 1 9 2v1l-7 2-5 1-8-4z" fill="#E2A53D"/>
<path transform="translate(1291,653)" d="m0 0h30v2l-4 1h-15l-11-2z" fill="#F4BE52"/>
<path transform="translate(1592,705)" d="m0 0h37l-1 2h-22l-9 1-5-2z" fill="#F4BE52"/>
<path transform="translate(787,1123)" d="m0 0 3 1 2 2h4l-2 9-3-4-6 2 1-7z" fill="#F3C15E"/>
<path transform="translate(186,1080)" d="m0 0 21 1 1 2h-35v-1h13z" fill="#F4BE52"/>
<path transform="translate(578,579)" d="m0 0h1v32h-2l-1-23z" fill="#EFB74C"/>
<path transform="translate(710,507)" d="m0 0h1v8h18v1l-25 1-1-6 5 1z" fill="#F4C057"/>
<path transform="translate(835,1477)" d="m0 0h10l14 1-4 4h-18v-1l14-1h-11l-5-1z" fill="#F4BE52"/>
<path transform="translate(918,1476)" d="m0 0h15v1l-7 1 2 2-4 2v2h-2l-5-6z" fill="#F4BF55"/>
<path transform="translate(1479,644)" d="m0 0 2 1v6h2l1 6-7-1-1-10h2z" fill="#F3BD53"/>
<path transform="translate(871,155)" d="m0 0 1 2-2 24-2-4v-19z" fill="#F4C15B"/>
<path transform="translate(521,1140)" d="m0 0h2v29l-2-4-1-13v-7z" fill="#F4BE52"/>
<path transform="translate(684,305)" d="m0 0h7l8 4v2l-12 1 2-5h-5z" fill="#E8AE47"/>
<path transform="translate(1655,706)" d="m0 0h5v2h7l1 2h-19v-2l-3-1z" fill="#E2A53D"/>
<path transform="translate(1681,1080)" d="m0 0 4 2 8 9 1 7-3-1-3-7-7-8z" fill="#F2BB4F"/>
<path transform="translate(682,1347)" d="m0 0 33 1v1l-25 1h-12v-2z" fill="#E2A53D"/>
<path transform="translate(518,1465)" d="m0 0 2 1v2l3 1 5 6 2 1v2l5 2 2 2-5-1-8-6-5-6z" fill="#F4BF55"/>
<path transform="translate(867,1478)" d="m0 0 3 1v16l-2-4-1-8-3-1 1-3z" fill="#F6CC7A"/>
<path transform="translate(1852,1293)" d="m0 0 4 2 6 7-2 3-5-4-3-3v-4z" fill="#F3BD51"/>
<path transform="translate(886 1e3)" d="m0 0 2 2 1 2v6l-3 1-2-5-2 1 1-5h3z" fill="#E2A53D"/>
<path transform="translate(909,1681)" d="m0 0 2 1-4 6-2-1-1 2-7 1 1-3 10-5z" fill="#E7AC43"/>
<path transform="translate(651,784)" d="m0 0h2v11l1 4-2 4h-1l-1-12z" fill="#F4BE52"/>
<path transform="translate(876,1023)" d="m0 0 5 1 1 3h2l-2 9h-1l-1-10-5 2z" fill="#F4BF56"/>
<path transform="translate(889,994)" d="m0 0 3 1 1 5-3 2-3-2-2 1v-5h3 1z" fill="#E4A944"/>
<path transform="translate(522,1453)" d="m0 0 2 3 3 9 2 4-4-2-4-6z" fill="#F4BE52"/>
<path transform="translate(1216,1195)" d="m0 0 4 2-1 3-5 3h-3l1-4z" fill="#E4A83F"/>
<path transform="translate(889,132)" d="m0 0 10 1v3l-4 1v-1l-12-2v-1z" fill="#EBBC69"/>
<path transform="translate(660,1339)" d="m0 0 5 2 9 3 2 1-1 1-7-1-6-2z" fill="#E2A53D"/>
<path transform="translate(954,911)" d="m0 0h2l6 17-4-2-1-6z" fill="#F4C057"/>
<path transform="translate(1476,1285)" d="m0 0h1v6l4 1 1 5-5-1-1-3z" fill="#F4C057"/>
<path transform="translate(145,1080)" d="m0 0m-1 1m-1 1m-1 1m-2 1 2 1-2 1zm-1 2 1 3h-2l-2 7-3 2 2-7z" fill="#F5C86E"/>
<path transform="translate(1493,918)" d="m0 0 8 1-4 2 3 2-4 1-2-1-1-2-4-2z" fill="#E2A53D"/>
<path transform="translate(1482,928)" d="m0 0h2v5l-1 4-4-4v-4z" fill="#E2A53D"/>
<path transform="translate(1672,649)" d="m0 0 9 3-4 2h-10v-1l6-1z" fill="#F4BE52"/>
<path transform="translate(134,1097)" d="m0 0h1v8l-2 6h-1v-11z" fill="#EEB54B"/>
<path transform="translate(823,1039)" d="m0 0 1 3-3 9-2-1 1-9z" fill="#F5C565"/>
<path transform="translate(704,703)" d="m0 0h16v1l-15 1-1 4h-1v-5z" fill="#F4BE52"/>
<path transform="translate(1063,515)" d="m0 0h6v4h-7l-1-2h2z" fill="#F2BC50"/>
<path transform="translate(133,1108)" d="m0 0h2l1 13-2-2-2-8z" fill="#F5C565"/>
<path transform="translate(1476,1072)" d="m0 0 5 3-2 5-1 2 2 1h-3z" fill="#F4C058"/>
</svg>
